<svg width="164" height="32" viewBox="0 0 164 32" fill="none" xmlns="http://www.w3.org/2000/svg">
<path d="M148.511 0H151.68L163.373 32H158.82L153.509 17.4951H142.106L136.818 32H135.389L147.083 0H147.127H148.511ZM142.597 16.1785H153.041L147.819 1.89679L142.597 16.1785Z" fill="url(#paint0_linear_87_28)"/>
<path d="M114.927 0V30.6611H131.083V32H114.927H112.695H110.441V0H114.927Z" fill="url(#paint1_linear_87_28)"/>
<path d="M104.752 21.2887V0H106.091V21.2887C106.091 23.2524 105.607 25.0451 104.64 26.6667C103.673 28.2882 102.379 29.5825 100.757 30.5495C99.1506 31.5165 97.3579 32 95.3793 32C93.2519 32 91.2882 31.5909 89.4881 30.7727C87.688 29.9544 86.2226 28.8089 85.092 27.3361C83.9614 25.8484 83.3068 24.093 83.1283 22.0697H83.106V0H87.6136V21.2887C87.6136 23.0144 87.9037 24.5839 88.4839 25.9972C89.0641 27.4105 89.927 28.5411 91.0725 29.3891C92.2329 30.2371 93.6685 30.6611 95.3793 30.6611C97.105 30.6611 98.6745 30.2371 100.088 29.3891C101.516 28.5411 102.647 27.4105 103.48 25.9972C104.328 24.5839 104.752 23.0144 104.752 21.2887Z" fill="url(#paint2_linear_87_28)"/>
<path d="M71.3882 15.5314C73.0842 15.9033 74.4752 16.4835 75.5612 17.272C76.6472 18.0456 77.4505 18.9754 77.9712 20.0614C78.4919 21.1325 78.7523 22.2929 78.7523 23.5425C78.7523 25.0897 78.3506 26.503 77.5472 27.7824C76.7588 29.047 75.5166 30.0586 73.8206 30.8173C72.1395 31.5611 69.9749 31.9479 67.3269 31.9777V32H59.4273H55.9015H54.9866V0H55.9015H59.4273H65.9657V0.0223152C68.4798 0.0818224 70.5328 0.483496 72.1246 1.22734C73.7165 1.97118 74.8843 2.95304 75.6281 4.17294C76.372 5.39284 76.7439 6.74663 76.7439 8.23431C76.7439 9.81125 76.3125 11.2469 75.4496 12.5411C74.5868 13.8205 73.233 14.8173 71.3882 15.5314ZM65.4524 1.33891H59.4273V15.1074H65.4524C66.7169 15.1074 67.8699 14.8024 68.9113 14.1925C69.9526 13.5676 70.7783 12.7345 71.3882 11.6932C72.0131 10.6518 72.3255 9.49884 72.3255 8.23431C72.3255 6.96978 72.0131 5.81683 71.3882 4.77545C70.7783 3.73408 69.9526 2.90098 68.9113 2.27615C67.8699 1.65132 66.7169 1.33891 65.4524 1.33891ZM67.193 30.6611C68.5021 30.6611 69.6923 30.3412 70.7634 29.7015C71.8494 29.0618 72.7123 28.2064 73.352 27.1353C73.9917 26.0493 74.3115 24.8517 74.3115 23.5425C74.3115 22.2483 73.9917 21.0655 73.352 19.9944C72.7123 18.9084 71.8494 18.0456 70.7634 17.4059C69.6923 16.7662 68.5021 16.4463 67.193 16.4463H59.4273V30.6611H67.193Z" fill="url(#paint3_linear_87_28)"/>
<path d="M32.3373 0H33.4753H50.725V1.33891H33.4753V15.7768H48.8505V17.1158H33.4753V30.6611H50.725V32H33.4753H32.3373H28.99V0H32.3373Z" fill="url(#paint4_linear_87_28)"/>
<path d="M23.3441 25.1046V0H24.683V32H23.3441L1.94379 6.87308V32H0.627197V0H1.94379L23.3441 25.1046Z" fill="url(#paint5_linear_87_28)"/>
<defs>
<linearGradient id="paint0_linear_87_28" x1="0.110186" y1="25.1448" x2="168.063" y2="25.1448" gradientUnits="userSpaceOnUse">
<stop stop-color="#AFD1DE"/>
<stop offset="1" stop-color="#D0B4D2"/>
</linearGradient>
<linearGradient id="paint1_linear_87_28" x1="0.110288" y1="25.1448" x2="168.063" y2="25.1448" gradientUnits="userSpaceOnUse">
<stop stop-color="#AFD1DE"/>
<stop offset="1" stop-color="#D0B4D2"/>
</linearGradient>
<linearGradient id="paint2_linear_87_28" x1="0.111235" y1="25.1448" x2="168.064" y2="25.1448" gradientUnits="userSpaceOnUse">
<stop stop-color="#AFD1DE"/>
<stop offset="1" stop-color="#D0B4D2"/>
</linearGradient>
<linearGradient id="paint3_linear_87_28" x1="0.109032" y1="25.1448" x2="168.062" y2="25.1448" gradientUnits="userSpaceOnUse">
<stop stop-color="#AFD1DE"/>
<stop offset="1" stop-color="#D0B4D2"/>
</linearGradient>
<linearGradient id="paint4_linear_87_28" x1="0.109665" y1="25.1448" x2="168.063" y2="25.1448" gradientUnits="userSpaceOnUse">
<stop stop-color="#AFD1DE"/>
<stop offset="1" stop-color="#D0B4D2"/>
</linearGradient>
<linearGradient id="paint5_linear_87_28" x1="0.109485" y1="25.1448" x2="168.063" y2="25.1448" gradientUnits="userSpaceOnUse">
<stop stop-color="#AFD1DE"/>
<stop offset="1" stop-color="#D0B4D2"/>
</linearGradient>
</defs>
</svg>
